<svg preserveAspectRatio="none" overflow="visible" style="display: block;" width="112" height="30.0669" viewBox="0 0 112 30.0669" fill="none" xmlns="http://www.w3.org/2000/svg">
<path id="Vector" d="M5.32669 26.9278H16.3633V29.5808H0V1.78634L2.64998 0.515859L3.72244 1.18936e-06H5.32669V26.9278ZM38.9178 21.442L40.5696 22.1082C39.5595 25.56 36.4966 28.2484 33.1217 29.4422C29.2151 30.8454 24.5925 29.7694 21.589 27.084C20.5577 26.1852 19.7287 25.0811 19.156 23.8434C18.5832 22.6057 18.2795 21.2622 18.2646 19.9003C18.2082 15.2782 20.6116 10.8802 24.9609 9.11152C27.5128 8.00906 31.1432 7.93242 33.7694 8.95824C37.3165 10.2523 40.0289 13.5066 39.9279 17.2886H22.9942C22.9585 21.8517 25.8462 26.6006 30.7956 26.5593C34.0338 26.5593 37.7146 24.717 38.8465 21.6366C38.8465 21.6366 38.3236 22.9925 38.9178 21.442ZM28.2228 10.1373C25.4719 10.1373 23.2913 12.6076 23.0358 15.2429L33.8882 15.2605C33.8436 12.3128 31.1164 10.0813 28.2228 10.1373ZM84.7814 19.5407C82.179 17.495 78.507 16.8347 75.6847 15.2163C71.8583 12.9466 74.1072 9.88678 77.8742 9.97816C80.548 9.97816 82.586 11.5375 84.0892 13.8515L86.0678 12.2509C83.7476 9.46231 81.5343 8.15055 77.9188 8.23309C74.2706 8.14761 69.9986 10.1786 69.9808 14.1492C70.0521 19.579 76.6473 20.3395 80.2866 22.6447C82.1166 23.7295 82.9068 25.9314 80.9847 27.3611C79.226 28.6286 76.5701 28.4812 74.746 27.3788C73.4893 26.6153 72.5386 25.5305 71.5583 24.2807L69.4193 26.0493C71.1305 28.1599 73.3942 29.566 75.9997 29.9286C79.832 30.3973 84.5645 29.7989 86.3708 26.1849C87.4789 23.7766 86.9293 21.1738 84.7844 19.5525M112 29.6161L106.525 29.5985C105.446 29.1032 104.445 28.1599 104.324 26.9455C102.758 28.0892 101.287 29.2595 99.3177 29.7429C96.3884 30.5358 92.4551 29.9433 91.1717 26.8364C90.1527 24.5165 91.0023 21.8252 92.9779 20.2835C96.1121 17.7868 100.45 16.8818 104.306 15.9592C104.306 14.2642 104.404 12.2774 103.435 10.9951C102.479 9.78656 100.366 9.75414 98.9998 10.2965C97.3896 10.9568 96.3617 12.5309 96.1567 14.22H91.65C92.1639 9.84846 97.2737 8.21835 101.186 8.2272C104.255 8.26552 107.618 8.69294 108.809 11.5582C109.084 12.2989 109.22 13.083 109.211 13.8722V26.6065C109.187 27.8239 110.155 28.7701 111.21 29.2595L112 29.6161ZM104.306 17.6866C101.564 18.5444 97.5946 19.8974 95.9874 22.3647C94.9803 24.0331 96.1478 26.1967 97.8085 26.9219C100.164 27.8327 102.407 26.297 104.291 25.0294V17.6866M64.6452 21.442L66.3029 22.1082C65.2958 25.56 62.2328 28.2484 58.858 29.4422C54.9514 30.8454 50.3288 29.7694 47.3253 27.084C46.2932 26.1846 45.4638 25.0795 44.891 23.8407C44.3182 22.6019 44.0149 21.2573 44.0009 19.8944C43.9444 15.2723 46.3478 10.8743 50.6971 9.10563C53.2491 8.00317 56.8794 7.92653 59.5056 8.95235C63.0498 10.2464 65.7622 13.5007 65.6612 17.2827H48.7215C48.6859 21.8458 51.5616 26.5947 56.52 26.5534C59.7611 26.5534 63.442 24.7111 64.5739 21.6307C64.5828 21.6366 64.051 22.9925 64.6452 21.442ZM53.9502 10.1373C51.1962 10.1373 49.0156 12.6076 48.7631 15.2429L59.6156 15.2605C59.571 12.3128 56.8408 10.0813 53.9502 10.1373ZM109.326 5.30597C109.855 5.30597 110.372 5.15037 110.812 4.85886C111.252 4.56735 111.594 4.15301 111.797 3.66824C111.999 3.18347 112.052 2.65004 111.949 2.13541C111.846 1.62078 111.591 1.14807 111.217 0.777042C110.843 0.406016 110.367 0.153343 109.848 0.0509775C109.329 -0.0513884 108.792 0.0011495 108.303 0.201948C107.815 0.402746 107.397 0.742785 107.103 1.17907C106.809 1.61535 106.653 2.12827 106.653 2.65298C106.653 3.3566 106.934 4.0314 107.436 4.52893C107.937 5.02646 108.617 5.30597 109.326 5.30597ZM109.326 0.492277C109.757 0.492277 110.178 0.619 110.536 0.856422C110.894 1.09384 111.173 1.4313 111.338 1.82612C111.503 2.22094 111.546 2.65538 111.462 3.07452C111.378 3.49365 111.171 3.87865 110.866 4.18084C110.562 4.48302 110.174 4.6888 109.751 4.77217C109.329 4.85555 108.891 4.81276 108.493 4.64922C108.095 4.48568 107.755 4.20874 107.516 3.85341C107.276 3.49808 107.149 3.08033 107.149 2.65298C107.15 2.08017 107.379 1.53104 107.787 1.12599C108.196 0.720953 108.749 0.493057 109.326 0.492277ZM109.882 3.97063L109.24 2.99492L108.795 2.98019V3.97063H108.236V1.33534C108.506 1.33534 109.606 1.28817 109.843 1.3884C110.008 1.44133 110.152 1.54518 110.253 1.68481C110.355 1.82445 110.409 1.99256 110.407 2.16465C110.405 2.33674 110.348 2.5038 110.244 2.64149C110.14 2.77917 109.994 2.88028 109.828 2.93007L110.515 3.97063H109.882ZM108.795 2.49675H109.478C109.525 2.50099 109.572 2.49527 109.616 2.47997C109.66 2.46468 109.701 2.44017 109.735 2.40808C109.769 2.37599 109.796 2.33705 109.813 2.29389C109.831 2.25072 109.839 2.20431 109.837 2.15776C109.84 2.10963 109.833 2.06143 109.815 2.0166C109.797 1.97178 109.769 1.93145 109.734 1.8985C109.698 1.86554 109.656 1.84077 109.609 1.82597C109.563 1.81117 109.514 1.8067 109.466 1.81287H108.795V2.49675Z" fill="black"/>
</svg>
